Music_LookYoungster:
	channel_count 3
	channel 1, Music_LookYoungster_Ch1
	channel 2, Music_LookYoungster_Ch2
	channel 3, Music_LookYoungster_Ch3

Music_LookYoungster_Ch1:
	tempo 118
	volume 7, 7
	stereo_panning FALSE, TRUE
	duty_cycle 3
	note_type 12, 10, 3
	tempo 142
	volume 7, 7
	duty_cycle 3
	pitch_offset 2
	vibrato 18, 1, 5
	note_type 12, 9, 2
.loop1
	octave 4
	note D_, 1
	note D_, 1
	octave 5
	note D_, 2
	octave 4
	note A_, 2
	rest 1
	note G#, 2
	note G_, 2
	note F_, 2
	note D_, 1
	note F_, 1
	note G_, 1

	note C_, 1
	note C_, 1
	octave 5
	note D_, 2
	octave 4
	note A_, 2
	rest 1
	note G#, 2
	note G_, 2
	note F_, 2
	note D_, 1
	note F_, 1
	note G_, 1

	octave 3
	note B_, 1
	note B_, 1
	octave 5
	note D_, 2
	octave 4
	note A_, 2
	rest 1
	note G#, 2
	note G_, 2
	note F_, 2
	note D_, 1
	note F_, 1
	note G_, 1

	octave 3
	note A#, 1
	note A#, 1
	octave 5
	note D_, 2
	octave 4
	note A_, 2
	rest 1
	note G#, 2
	note G_, 2
	note F_, 2
	note D_, 1
	note F_, 1
	note G_, 1

	
	sound_loop 0, .loop1

Music_LookYoungster_Ch2:
	stereo_panning TRUE, FALSE
	vibrato 18, 2, 6
	duty_cycle 1
	note_type 12, 10, 3
	rest 8
	rest 8
	rest 8
	rest 8
	rest 8
	rest 8
	rest 8
	rest 8
.loop1
	octave 3
	
	note D_, 1
	note D_, 1
	note D_, 2
	note D_, 1
	note D_, 1
	rest 1
	note D_, 2
	note D_, 2
	note D_, 2
	note D_, 1
	note D_, 1
	note D_, 1


	note C_, 1
	note C_, 1
	note C_, 2
	note C_, 1
	note C_, 1
	rest 1
	note C_, 2
	note C_, 2
	note C_, 2
	note C_, 1
	note C_, 1
	note C_, 1

	octave 2
	note B_, 1
	note B_, 1
	note B_, 2
	note B_, 1
	note B_, 1
	rest 1
	note B_, 2
	note B_, 2
	note B_, 2
	note B_, 1
	note B_, 1
	note B_, 1


	note A#, 1
	note A#, 1
	note A#, 2
	note A#, 1
	note A#, 1
	rest 1
	note A#, 2
	note A#, 2
	note A#, 2
	note A#, 1
	note A#, 1
	note A#, 1


	sound_loop 0, .loop1


Music_LookYoungster_Ch3:
	stereo_panning TRUE, TRUE
	vibrato 2, 2, 4
	note_type 12, 2, 5
	rest 8
	rest 8
	rest 8
	rest 8
	rest 8
	rest 8
	rest 8
	rest 8
	rest 8
	rest 8
	rest 8
	rest 8
	rest 8
	rest 8
	rest 8
	rest 8
.loop1
	octave 2
	note G_, 2
	rest 2
	sound_loop 0, .loop1